<svg xmlns="http://www.w3.org/2000/svg" viewBox="0 0 960 540" role="img" aria-label="Пушистый детектив">
  <defs>
    <linearGradient id="bg" x1="0" x2="0" y1="0" y2="1">
      <stop offset="0" stop-color="#ffe5f0"/>
      <stop offset=".58" stop-color="#fff3c4"/>
      <stop offset=".59" stop-color="#e9c498"/>
      <stop offset="1" stop-color="#c48e65"/>
    </linearGradient>
    <filter id="shadow" x="-30%" y="-30%" width="160%" height="160%">
      <feDropShadow dx="0" dy="12" stdDeviation="7" flood-color="#2a213c" flood-opacity=".22"/>
    </filter>
  </defs>
  <rect width="960" height="540" rx="28" fill="url(#bg)"/>
  <g opacity=".35" fill="#fff">
    <circle cx="78" cy="70" r="18"/><circle cx="162" cy="118" r="10"/><circle cx="830" cy="78" r="28"/><circle cx="730" cy="132" r="12"/>
  </g>
  <rect x="604" y="74" width="238" height="164" rx="26" fill="#fff8ee" filter="url(#shadow)"/>
  <rect x="628" y="96" width="190" height="118" rx="18" fill="#8edcff"/>
  <circle cx="774" cy="126" r="24" fill="#ffdf74"/>
  <rect x="120" y="155" width="250" height="26" rx="13" fill="#a86d45"/>
  <rect x="120" y="250" width="250" height="26" rx="13" fill="#a86d45"/>
  <rect x="148" y="97" width="28" height="64" rx="6" fill="#ff72ad"/>
  <rect x="184" y="112" width="28" height="49" rx="6" fill="#6fd0ff"/>
  <rect x="220" y="84" width="28" height="77" rx="6" fill="#ffd76a"/>
  <g filter="url(#shadow)">
    <ellipse cx="500" cy="452" rx="210" ry="54" fill="#9bd9ff"/>
    <path d="M354 336c20-68 264-68 292 0v84H354z" fill="#ff8dbc"/>
    <rect x="320" y="380" width="360" height="94" rx="42" fill="#e65f9e"/>
    <rect x="382" y="342" width="88" height="72" rx="22" fill="#fff2a9" transform="rotate(-8 426 378)"/>
    <rect x="504" y="342" width="88" height="72" rx="22" fill="#bdefff" transform="rotate(8 548 378)"/>
  </g>
  <g filter="url(#shadow)">
    <ellipse cx="208" cy="448" rx="70" ry="18" fill="#2a213c" opacity=".18"/>
    <path d="M160 286h108l26 146H134z" fill="#6b4a35"/>
    <ellipse cx="214" cy="232" rx="78" ry="66" fill="#fff7ed" stroke="#241f35" stroke-width="8"/>
    <path d="M165 185 136 119l72 54zM258 185l32-66-72 54z" fill="#fff7ed" stroke="#241f35" stroke-width="8" stroke-linejoin="round"/>
    <path d="M172 174c20-48 82-48 104 0z" fill="#6b4a35"/>
    <circle cx="190" cy="232" r="9" fill="#5bb6ff"/>
    <circle cx="236" cy="232" r="9" fill="#5bb6ff"/>
    <path d="M204 258c16 11 30 11 46 0" fill="none" stroke="#241f35" stroke-width="8" stroke-linecap="round"/>
    <circle cx="300" cy="302" r="44" fill="none" stroke="#241f35" stroke-width="12"/>
    <path d="M331 333 386 388" stroke="#241f35" stroke-width="14" stroke-linecap="round"/>
  </g>
  <g filter="url(#shadow)">
    <path d="M732 312h132v96H732z" fill="#ffd76a"/>
    <path d="M754 282h88v54h-88z" fill="#ff72ad" transform="rotate(-4 798 309)"/>
    <text x="775" y="377" font-family="Arial, Helvetica, sans-serif" font-size="54" font-weight="900" fill="#fff">★</text>
  </g>
  <path d="M705 285h94l-7-48 45 34 19-52 19 52 45-34-7 48h47v48H705z" fill="#ffd76a" stroke="#f6a638" stroke-width="8" filter="url(#shadow)"/>
  <text x="48" y="72" fill="#241f35" font-family="Arial, Helvetica, sans-serif" font-size="48" font-weight="900">Пушистый</text>
  <text x="48" y="126" fill="#241f35" font-family="Arial, Helvetica, sans-serif" font-size="48" font-weight="900">детектив</text>
  <rect x="48" y="438" width="302" height="58" rx="16" fill="#fff" opacity=".92"/>
  <text x="72" y="477" fill="#2f7b55" font-family="Arial, Helvetica, sans-serif" font-size="27" font-weight="900">найди корону</text>
</svg>
